<svg xmlns="http://www.w3.org/2000/svg" width="458.775" height="135.575" viewBox="0 0 458.775 135.575">
  <path id="パス_13919" data-name="パス 13919" d="M-100.125-50.025h-2.025l-2.1,2.325a16.116,16.116,0,0,0-10.125-3.6C-123-51.3-129.6-44.475-129.6-35.625a13.316,13.316,0,0,0,4.875,10.8c1.8,1.425,1.8,1.425,10.35,4.2,6.975,2.175,7.35,2.325,8.85,3.375a8.537,8.537,0,0,1,3.3,6.9c0,5.325-4.725,9.6-10.575,9.6-7.125,0-12.675-5.025-14.55-13.2h-2.025V0h1.95l2.475-3.15c4.425,3.075,8.25,4.425,12.6,4.425,9.45,0,16.5-7.2,16.5-16.8a16.214,16.214,0,0,0-4.125-11.1C-102-28.8-104.1-29.7-111.75-31.95c-6.675-1.95-6.675-1.95-8.475-2.925a6.754,6.754,0,0,1-3.45-6.075c0-4.725,3.975-8.325,9.3-8.325,6.6,0,11.175,4.725,12.225,12.75h2.025ZM-84.75-1.875h-6V0H-67.5V-1.875h-6.75V-23.4h5.625c10.2,0,13.65-.75,16.725-3.525A12.786,12.786,0,0,0-47.625-36.6a12.8,12.8,0,0,0-4.425-9.9c-3.225-2.85-6.525-3.525-16.65-3.525H-90.75v1.875h6Zm10.5-23.4V-48.15h5.4c7.875,0,9.825,2.325,9.825,11.625,0,8.4-2.4,11.25-9.675,11.25Zm34.725,23.4h-6V0h22.5V-1.875h-6v-23.85H-24.9c6-.225,8.025,2.4,8.475,11.325.375,5.55.675,7.125,1.8,9.525C-13.05-1.425-10.05.3-5.7.3A22.368,22.368,0,0,0,2.475-1.35V-3.3a10.627,10.627,0,0,1-3.525.825C-3.675-2.475-4.8-4.2-4.8-8.1a19.013,19.013,0,0,1,.075-1.95v-1.575c0-7.8-5.325-13.575-13.8-15,5.325-.3,6.6-.525,8.925-1.8A11.163,11.163,0,0,0-3.675-38.4a10.366,10.366,0,0,0-4.2-8.7c-3.15-2.325-6.375-2.925-15.6-2.925h-22.05v1.875h6Zm10.5-25.725V-48.15h5.55c4.05,0,5.7.375,7.05,1.65,1.425,1.425,2.1,3.825,2.1,7.875,0,8.775-1.875,11.025-9.15,11.025ZM13.125-1.875h-6V0h22.5V-1.875h-6V-48.15h6v-1.875H7.125v1.875h6Zm61.2,2.4H76.05V-42.75c-.075-4.875.375-5.4,4.05-5.4h1.95v-1.875H67.8v1.875h1.95c3.675,0,4.125.525,4.05,5.4v24.675l-24-31.95H33.6v1.875h1.95c3.675,0,4.125.6,4.05,5.4V-7.275c.075,4.8-.375,5.4-4.05,5.4H33.6V0H48.825V-1.875H45.9c-3.675,0-4.125-.525-4.05-5.4v-36.6Zm51.225-50.55h-2.025l-2.25,2.4a20.2,20.2,0,0,0-11.7-3.675,23.343,23.343,0,0,0-15.3,6.15c-5.625,5.1-8.55,12.15-8.55,20.7,0,14.925,9.375,25.725,22.425,25.725a25.991,25.991,0,0,0,13.35-4.05,32.675,32.675,0,0,0,6.15-5.4V-16.8h4.5v-1.875h-22.5V-16.8h7.5v8.625c0,4.275-3.9,7.425-9.15,7.425a10.885,10.885,0,0,1-5.1-1.125c-2.4-1.2-3.45-3-3.975-6.825-.3-2.475-.675-11.4-.675-17.55,0-10.425.675-15.675,2.25-18.45,1.65-2.925,5.175-4.575,9.525-4.575,4.125,0,7.95,1.575,10.05,4.125,1.8,2.25,2.7,4.65,3.45,9.15h2.025Zm-315.15,83h-2.025l-1.35,3.075A15.966,15.966,0,0,0-204.6,31.7c-13.35,0-24.225,12.225-24.225,27.225,0,8.4,3.225,15.6,9.075,20.25a24.534,24.534,0,0,0,14.85,5.1c4.8,0,7.95-1.35,11.7-4.875l2.025,3.6h2.025l.675-13.95H-190.5c-2.55,8.4-7.8,13.2-14.475,13.2-5.55,0-9-2.925-10.5-9-.675-2.7-.825-5.25-.825-12.675,0-13.65.525-18.15,2.625-21.525,2.1-3.6,5.325-5.325,9.825-5.325,6.75,0,10.95,4.05,12.825,12.3h1.95Zm31.35-1.275a22.813,22.813,0,0,0-16.425,6.525,27.976,27.976,0,0,0-8.1,19.725,27.89,27.89,0,0,0,8.1,19.8,22.631,22.631,0,0,0,16.425,6.525,22.683,22.683,0,0,0,16.5-6.525,27.994,27.994,0,0,0,8.1-19.425,27.9,27.9,0,0,0-8.1-20.1A22.683,22.683,0,0,0-158.25,31.7Zm.075,2.025c4.35,0,7.2,1.425,9.225,4.725s2.775,8.85,2.775,19.875c0,9.225-.675,15-2.25,18.15-1.95,3.975-4.95,5.775-9.75,5.775-4.425,0-7.275-1.425-9.3-4.725-1.95-3.3-2.775-8.925-2.775-19.575,0-9.525.675-15.225,2.25-18.45C-166.125,35.525-163.05,33.725-158.175,33.725Zm35.7,47.4h-6V83H-90.3l1.425-15.75h-1.95C-92.85,76.475-98.4,81.575-105.9,81.125h-6.075V34.85h6V32.975h-22.5V34.85h6Zm43.65,0h-6V83H-46.65l1.425-15.75h-1.95C-49.2,76.475-54.75,81.575-62.25,81.125h-6.075V34.85h6V32.975h-22.5V34.85h6Zm43.65,0h-6V83h41.1L.975,67.1H-1.05C-3.45,78.2-7.125,81.275-17.7,81.125h-6.975V58.55h1.95c6.9.075,8.925,2.25,9.15,9.675h2.025v-20.4h-2.025c.075,6.375-2.55,9-9,8.85h-2.1V34.85H-15.9c8.25-.3,11.55,2.475,13.35,10.875H-.6l-1.125-12.75h-39.45V34.85h6ZM45.6,32.975H43.575l-1.35,3.075A15.966,15.966,0,0,0,30.6,31.7C17.25,31.7,6.375,43.925,6.375,58.925c0,8.4,3.225,15.6,9.075,20.25a24.534,24.534,0,0,0,14.85,5.1c4.8,0,7.95-1.35,11.7-4.875L44.025,83H46.05l.675-13.95H44.7c-2.55,8.4-7.8,13.2-14.475,13.2-5.55,0-9-2.925-10.5-9C19.05,70.55,18.9,68,18.9,60.575c0-13.65.525-18.15,2.625-21.525,2.1-3.6,5.325-5.325,9.825-5.325,6.75,0,10.95,4.05,12.825,12.3h1.95Zm22.8,48.15H61.65V83h24V81.125H78.9V34.85h2.025c7.95-.525,12.45,4.05,13.275,13.5h2.025L95.25,32.975H52.05L51.075,48.35H53.1c.825-9.45,5.325-14.025,13.275-13.5H68.4Zm37.725,0h-6V83h22.5V81.125h-6V34.85h6V32.975h-22.5V34.85h6ZM152.25,31.7a22.813,22.813,0,0,0-16.425,6.525,28.158,28.158,0,0,0,0,39.525,24.03,24.03,0,0,0,32.925,0,28.153,28.153,0,0,0,0-39.525A22.683,22.683,0,0,0,152.25,31.7Zm.075,2.025c4.35,0,7.2,1.425,9.225,4.725s2.775,8.85,2.775,19.875c0,9.225-.675,15-2.25,18.15-1.95,3.975-4.95,5.775-9.75,5.775-4.425,0-7.275-1.425-9.3-4.725-1.95-3.3-2.775-8.925-2.775-19.575,0-9.525.675-15.225,2.25-18.45C144.375,35.525,147.45,33.725,152.325,33.725Zm69.9,49.8h1.725V40.25c-.075-4.875.375-5.4,4.05-5.4h1.95V32.975H215.7V34.85h1.95c3.675,0,4.125.525,4.05,5.4V64.925l-24-31.95H181.5V34.85h1.95c3.675,0,4.125.6,4.05,5.4V75.725c.075,4.8-.375,5.4-4.05,5.4H181.5V83h15.225V81.125H193.8c-3.675,0-4.125-.525-4.05-5.4v-36.6Z" transform="translate(228.825 51.3)" fill="#707070"/>
</svg>
