<svg xmlns="http://www.w3.org/2000/svg" width="742.725" height="52.575" viewBox="0 0 742.725 52.575">
  <path id="パス_13919" data-name="パス 13919" d="M32.625-50.025H30.6L28.5-47.7a16.116,16.116,0,0,0-10.125-3.6C9.75-51.3,3.15-44.475,3.15-35.625a13.316,13.316,0,0,0,4.875,10.8c1.8,1.425,1.8,1.425,10.35,4.2,6.975,2.175,7.35,2.325,8.85,3.375a8.537,8.537,0,0,1,3.3,6.9c0,5.325-4.725,9.6-10.575,9.6C12.825-.75,7.275-5.775,5.4-13.95H3.375V0h1.95L7.8-3.15c4.425,3.075,8.25,4.425,12.6,4.425,9.45,0,16.5-7.2,16.5-16.8a16.214,16.214,0,0,0-4.125-11.1C30.75-28.8,28.65-29.7,21-31.95c-6.675-1.95-6.675-1.95-8.475-2.925a6.754,6.754,0,0,1-3.45-6.075c0-4.725,3.975-8.325,9.3-8.325,6.6,0,11.175,4.725,12.225,12.75h2.025ZM48-1.875H42V0H65.25V-1.875H58.5V-23.4h5.625c10.2,0,13.65-.75,16.725-3.525A12.786,12.786,0,0,0,85.125-36.6,12.8,12.8,0,0,0,80.7-46.5c-3.225-2.85-6.525-3.525-16.65-3.525H42v1.875h6Zm10.5-23.4V-48.15h5.4c7.875,0,9.825,2.325,9.825,11.625,0,8.4-2.4,11.25-9.675,11.25Zm34.725,23.4h-6V0h22.5V-1.875h-6v-23.85h4.125c6-.225,8.025,2.4,8.475,11.325.375,5.55.675,7.125,1.8,9.525C119.7-1.425,122.7.3,127.05.3a22.368,22.368,0,0,0,8.175-1.65V-3.3a10.627,10.627,0,0,1-3.525.825c-2.625,0-3.75-1.725-3.75-5.625a19.013,19.013,0,0,1,.075-1.95v-1.575c0-7.8-5.325-13.575-13.8-15,5.325-.3,6.6-.525,8.925-1.8a11.163,11.163,0,0,0,5.925-9.975,10.366,10.366,0,0,0-4.2-8.7c-3.15-2.325-6.375-2.925-15.6-2.925H87.225v1.875h6Zm10.5-25.725V-48.15h5.55c4.05,0,5.7.375,7.05,1.65,1.425,1.425,2.1,3.825,2.1,7.875,0,8.775-1.875,11.025-9.15,11.025Zm42.15,25.725h-6V0h22.5V-1.875h-6V-48.15h6v-1.875h-22.5v1.875h6Zm61.2,2.4H208.8V-42.75c-.075-4.875.375-5.4,4.05-5.4h1.95v-1.875H200.55v1.875h1.95c3.675,0,4.125.525,4.05,5.4v24.675l-24-31.95h-16.2v1.875h1.95c3.675,0,4.125.6,4.05,5.4V-7.275c.075,4.8-.375,5.4-4.05,5.4h-1.95V0h15.225V-1.875H178.65c-3.675,0-4.125-.525-4.05-5.4v-36.6ZM258.3-50.025h-2.025l-2.25,2.4a20.2,20.2,0,0,0-11.7-3.675,23.343,23.343,0,0,0-15.3,6.15c-5.625,5.1-8.55,12.15-8.55,20.7,0,14.925,9.375,25.725,22.425,25.725a25.99,25.99,0,0,0,13.35-4.05,32.674,32.674,0,0,0,6.15-5.4V-16.8h4.5v-1.875H242.4V-16.8h7.5v8.625C249.9-3.9,246-.75,240.75-.75a10.885,10.885,0,0,1-5.1-1.125c-2.4-1.2-3.45-3-3.975-6.825-.3-2.475-.675-11.4-.675-17.55,0-10.425.675-15.675,2.25-18.45,1.65-2.925,5.175-4.575,9.525-4.575,4.125,0,7.95,1.575,10.05,4.125,1.8,2.25,2.7,4.65,3.45,9.15H258.3Zm68.025,0H324.3l-1.35,3.075a15.966,15.966,0,0,0-11.625-4.35c-13.35,0-24.225,12.225-24.225,27.225,0,8.4,3.225,15.6,9.075,20.25a24.534,24.534,0,0,0,14.85,5.1c4.8,0,7.95-1.35,11.7-4.875L324.75,0h2.025l.675-13.95h-2.025c-2.55,8.4-7.8,13.2-14.475,13.2-5.55,0-9-2.925-10.5-9-.675-2.7-.825-5.25-.825-12.675,0-13.65.525-18.15,2.625-21.525,2.1-3.6,5.325-5.325,9.825-5.325,6.75,0,10.95,4.05,12.825,12.3h1.95Zm31.35-1.275a22.813,22.813,0,0,0-16.425,6.525,27.976,27.976,0,0,0-8.1,19.725,27.89,27.89,0,0,0,8.1,19.8,22.631,22.631,0,0,0,16.425,6.525,22.683,22.683,0,0,0,16.5-6.525,27.994,27.994,0,0,0,8.1-19.425,27.9,27.9,0,0,0-8.1-20.1A22.683,22.683,0,0,0,357.675-51.3Zm.075,2.025c4.35,0,7.2,1.425,9.225,4.725s2.775,8.85,2.775,19.875c0,9.225-.675,15-2.25,18.15C365.55-2.55,362.55-.75,357.75-.75c-4.425,0-7.275-1.425-9.3-4.725-1.95-3.3-2.775-8.925-2.775-19.575,0-9.525.675-15.225,2.25-18.45C349.8-47.475,352.875-49.275,357.75-49.275Zm35.7,47.4h-6V0h38.175l1.425-15.75H425.1c-2.025,9.225-7.575,14.325-15.075,13.875H403.95V-48.15h6v-1.875h-22.5v1.875h6Zm43.65,0h-6V0h38.175L470.7-15.75h-1.95c-2.025,9.225-7.575,14.325-15.075,13.875H447.6V-48.15h6v-1.875H431.1v1.875h6Zm43.65,0h-6V0h41.1l1.05-15.9h-2.025c-2.4,11.1-6.075,14.175-16.65,14.025H491.25V-24.45h1.95c6.9.075,8.925,2.25,9.15,9.675h2.025v-20.4H502.35c.075,6.375-2.55,9-9,8.85h-2.1V-48.15h8.775c8.25-.3,11.55,2.475,13.35,10.875h1.95L514.2-50.025H474.75v1.875h6Zm80.775-48.15H559.5l-1.35,3.075a15.966,15.966,0,0,0-11.625-4.35c-13.35,0-24.225,12.225-24.225,27.225,0,8.4,3.225,15.6,9.075,20.25a24.534,24.534,0,0,0,14.85,5.1c4.8,0,7.95-1.35,11.7-4.875L559.95,0h2.025l.675-13.95h-2.025c-2.55,8.4-7.8,13.2-14.475,13.2-5.55,0-9-2.925-10.5-9-.675-2.7-.825-5.25-.825-12.675,0-13.65.525-18.15,2.625-21.525,2.1-3.6,5.325-5.325,9.825-5.325,6.75,0,10.95,4.05,12.825,12.3h1.95Zm22.8,48.15h-6.75V0h24V-1.875h-6.75V-48.15h2.025c7.95-.525,12.45,4.05,13.275,13.5h2.025l-.975-15.375h-43.2L567-34.65h2.025c.825-9.45,5.325-14.025,13.275-13.5h2.025Zm37.725,0h-6V0h22.5V-1.875h-6V-48.15h6v-1.875h-22.5v1.875h6ZM668.175-51.3a22.813,22.813,0,0,0-16.425,6.525,27.976,27.976,0,0,0-8.1,19.725,27.89,27.89,0,0,0,8.1,19.8,22.631,22.631,0,0,0,16.425,6.525,22.682,22.682,0,0,0,16.5-6.525,27.994,27.994,0,0,0,8.1-19.425,27.9,27.9,0,0,0-8.1-20.1A22.683,22.683,0,0,0,668.175-51.3Zm.075,2.025c4.35,0,7.2,1.425,9.225,4.725s2.775,8.85,2.775,19.875c0,9.225-.675,15-2.25,18.15C676.05-2.55,673.05-.75,668.25-.75c-4.425,0-7.275-1.425-9.3-4.725-1.95-3.3-2.775-8.925-2.775-19.575,0-9.525.675-15.225,2.25-18.45C660.3-47.475,663.375-49.275,668.25-49.275Zm69.9,49.8h1.725V-42.75c-.075-4.875.375-5.4,4.05-5.4h1.95v-1.875h-14.25v1.875h1.95c3.675,0,4.125.525,4.05,5.4v24.675l-24-31.95h-16.2v1.875h1.95c3.675,0,4.125.6,4.05,5.4V-7.275c.075,4.8-.375,5.4-4.05,5.4h-1.95V0H712.65V-1.875h-2.925c-3.675,0-4.125-.525-4.05-5.4v-36.6Z" transform="translate(-3.15 51.3)" fill="#707070"/>
</svg>
