<svg xmlns="http://www.w3.org/2000/svg" width="518.44" height="64.532" viewBox="0 0 518.44 64.532">
  <path id="パス_13919" data-name="パス 13919" d="M7.48-1.7H2.04V0h20.4V-1.7H17V-23.324h3.74c5.44-.2,7.276,2.176,7.684,10.268.34,5.032.612,6.46,1.632,8.636C31.484-1.292,34.2.272,38.148.272a20.281,20.281,0,0,0,7.412-1.5V-2.992a9.635,9.635,0,0,1-3.2.748c-2.38,0-3.4-1.564-3.4-5.1a17.238,17.238,0,0,1,.068-1.768V-10.54c0-7.072-4.828-12.308-12.512-13.6,4.828-.272,5.984-.476,8.092-1.632a10.121,10.121,0,0,0,5.372-9.044A9.4,9.4,0,0,0,36.176-42.7c-2.856-2.108-5.78-2.652-14.144-2.652H2.04v1.7H7.48ZM17-25.024V-43.656h5.032c3.672,0,5.168.34,6.392,1.5,1.292,1.292,1.9,3.468,1.9,7.14,0,7.956-1.7,10-8.3,10ZM52.7-1.7H48.144V0h17.2V-1.7H60.86V-27.472a50.513,50.513,0,0,1-10.608.748H48.144v1.7H52.7Zm3.2-41.48a4.528,4.528,0,0,0-4.488,4.488A4.5,4.5,0,0,0,55.9-34.136a4.556,4.556,0,0,0,4.556-4.556A4.542,4.542,0,0,0,55.9-43.18ZM70.652-1.7H66.1V0H78.812V-4.012A10.663,10.663,0,0,0,88.06.68a11.96,11.96,0,0,0,8.3-3.264,16.276,16.276,0,0,0,4.352-10.948c0-7.888-5.508-13.872-12.716-13.872a10.487,10.487,0,0,0-9.18,4.964V-46.1a50.935,50.935,0,0,1-10.608.748H66.1v1.7h4.556ZM87.04-25.364a4.182,4.182,0,0,1,3.6,1.768c.884,1.292,1.224,3.332,1.224,8.3a54.4,54.4,0,0,1-.816,11.152c-.544,1.768-2.176,2.788-4.42,2.788-4.964,0-8.16-4.692-8.16-11.9,0-4.148.884-7.344,2.652-9.384A8.071,8.071,0,0,1,87.04-25.364ZM107.576-1.7H103.02V0h12.716V-4.012A10.663,10.663,0,0,0,124.984.68a11.96,11.96,0,0,0,8.3-3.264,16.276,16.276,0,0,0,4.352-10.948c0-7.888-5.508-13.872-12.716-13.872a10.487,10.487,0,0,0-9.18,4.964V-46.1a50.935,50.935,0,0,1-10.608.748H103.02v1.7h4.556Zm16.388-23.664a4.182,4.182,0,0,1,3.6,1.768c.884,1.292,1.224,3.332,1.224,8.3a54.4,54.4,0,0,1-.816,11.152c-.544,1.768-2.176,2.788-4.42,2.788-4.964,0-8.16-4.692-8.16-11.9,0-4.148.884-7.344,2.652-9.384A8.071,8.071,0,0,1,123.964-25.364ZM157.08-27.4c-8.5,0-15.164,6.188-15.164,14.008C141.916-5.44,148.58.68,157.148.68c8.5,0,15.232-6.12,15.232-13.872C172.38-21.284,165.784-27.4,157.08-27.4Zm.068,1.836a5.741,5.741,0,0,1,5.1,2.516c.952,1.428,1.292,4.08,1.292,9.792,0,4.9-.34,7.752-1.02,9.18a5.78,5.78,0,0,1-5.372,2.924,5.741,5.741,0,0,1-5.1-2.516c-.952-1.428-1.292-4.148-1.292-9.656,0-5.1.34-7.888,1.02-9.316A5.78,5.78,0,0,1,157.148-25.568ZM180.676-1.7H176.12V0h16.32V-1.7h-3.6V-14.824c0-3.332.136-4.08.884-5.576a7.721,7.721,0,0,1,6.392-4.284c2.516,0,3.4,1.564,3.4,6.052V-1.7H195.84V0h16.32V-1.7h-4.488V-18.632c0-3.74-.476-5.236-2.108-6.664A9.706,9.706,0,0,0,199.1-27.4a12.991,12.991,0,0,0-10.268,4.9v-4.964a51.361,51.361,0,0,1-10.608.748H176.12v1.7h4.556Zm58.756-14.5,7.992,7.992,1.242-1.242-7.992-7.992,7.992-7.992-1.242-1.242-7.992,7.992-7.992-7.992L230.2-25.434l7.992,7.992L230.2-9.45l1.242,1.242Zm34-27.456V-6.6c.068,4.352-.34,4.9-3.672,4.9H268V0h12.92V-1.7h-1.768c-3.332,0-3.74-.476-3.672-4.9v-37.06L288.4,0h1.5L302.88-43.18V-1.7h-6.12V0h21.08V-1.7H312.4V-43.656h5.44v-1.7H301.452l-8.5,28.084-8.228-28.084H268v1.7Zm76.3,39.848a2.678,2.678,0,0,1-1.836,1.02c-1.156,0-1.428-.544-1.428-2.72V-17.884c0-4.284-.272-5.3-1.7-6.664-1.836-1.768-5.3-2.856-9.316-2.856-6.256,0-11.152,2.992-11.152,6.868a3.405,3.405,0,0,0,3.332,3.6A3.654,3.654,0,0,0,331.44-20.4a3.7,3.7,0,0,0-.748-2.244,2.657,2.657,0,0,1-.476-1.156c0-1.088,1.7-1.768,4.216-1.768,1.972,0,3.264.544,3.876,1.564.476.952.476.952.544,6.46v1.7c-10.88.884-16.8,4.42-16.8,10.132,0,3.876,2.992,6.392,7.48,6.392a11.951,11.951,0,0,0,9.316-4.488C340.212-1.156,342.32.34,344.7.34a8.139,8.139,0,0,0,6.12-3.06Zm-10.88-6.8c0,3.2-.2,4.488-.884,5.644A4.142,4.142,0,0,1,334.3-2.856c-2.72,0-4.624-2.108-4.624-5.032,0-4.012,3.2-6.052,9.18-6.12ZM356.736-1.7H352.18V0h17.952V-1.7H364.9V-13.6c0-4.148.816-6.8,2.924-9.384a5.429,5.429,0,0,1,2.788-1.972.5.5,0,0,1,.544.544.617.617,0,0,1-.2.476,3.448,3.448,0,0,0-.816,2.312,3.807,3.807,0,0,0,3.944,3.876A4.2,4.2,0,0,0,378.36-22.1a5.294,5.294,0,0,0-5.576-5.3c-3.128,0-6.12,2.176-7.888,5.78v-5.848a51.817,51.817,0,0,1-10.88.748H352.18v1.7h4.556Zm36.788-.68h-6.256c-2.448,0-3.468-.544-3.468-1.972,0-1.7,1.972-3.536,4.624-4.284a14.338,14.338,0,0,0,6.392,1.428c7,0,12.036-4.284,12.036-10.2a8.813,8.813,0,0,0-1.36-4.828c0-.816.272-1.224.748-1.224.272,0,.34.068.612.34a2.772,2.772,0,0,0,2.312,1.156,2.562,2.562,0,0,0,2.516-2.72,2.965,2.965,0,0,0-3.06-3.06c-1.972,0-3.332,1.292-4.284,3.944a13.286,13.286,0,0,0-9.588-3.6c-6.936,0-12.172,4.352-12.172,10.064,0,3.2,1.36,5.644,4.284,7.752a8.68,8.68,0,0,0-6.528,8.024c0,3.264,1.768,5.576,5.168,6.528-3.332.884-5.032,2.788-5.032,5.508,0,4.624,5.848,7.956,13.8,7.956,9.452,0,15.5-4.692,15.5-12.036a8.965,8.965,0,0,0-2.584-6.664c-1.632-1.564-3.672-2.176-7.276-2.176Zm-2.992-17.476c0-2.38.2-3.332.816-4.216a3.993,3.993,0,0,1,3.332-1.5,3.993,3.993,0,0,1,3.332,1.5c.612.884.816,1.836.816,4.216v5.1c0,4.148-1.156,5.712-4.148,5.712s-4.148-1.564-4.148-5.712ZM402.908,5.508c2.516,0,3.672,1.156,3.672,3.468,0,4.352-5.1,7.616-12.036,7.616-5.78,0-9.588-2.652-9.588-6.664a5.8,5.8,0,0,1,2.108-4.42ZM440.92-3.808a2.678,2.678,0,0,1-1.836,1.02c-1.156,0-1.428-.544-1.428-2.72V-17.884c0-4.284-.272-5.3-1.7-6.664-1.836-1.768-5.3-2.856-9.316-2.856-6.256,0-11.152,2.992-11.152,6.868a3.405,3.405,0,0,0,3.332,3.6,3.654,3.654,0,0,0,3.808-3.468,3.7,3.7,0,0,0-.748-2.244A2.657,2.657,0,0,1,421.4-23.8c0-1.088,1.7-1.768,4.216-1.768,1.972,0,3.264.544,3.876,1.564.476.952.476.952.544,6.46v1.7c-10.88.884-16.8,4.42-16.8,10.132,0,3.876,2.992,6.392,7.48,6.392a11.951,11.951,0,0,0,9.316-4.488C431.4-1.156,433.508.34,435.888.34a8.139,8.139,0,0,0,6.12-3.06Zm-10.88-6.8c0,3.2-.2,4.488-.884,5.644a4.142,4.142,0,0,1-3.672,2.108c-2.72,0-4.624-2.108-4.624-5.032,0-4.012,3.2-6.052,9.18-6.12ZM447.924-1.7h-4.556V0H461.32V-1.7h-5.236V-13.6c0-4.148.816-6.8,2.924-9.384a5.429,5.429,0,0,1,2.788-1.972.5.5,0,0,1,.544.544.617.617,0,0,1-.2.476,3.448,3.448,0,0,0-.816,2.312,3.807,3.807,0,0,0,3.944,3.876,4.2,4.2,0,0,0,4.284-4.352,5.294,5.294,0,0,0-5.576-5.3c-3.128,0-6.12,2.176-7.888,5.78v-5.848a51.817,51.817,0,0,1-10.88.748h-1.836v1.7h4.556ZM498.38-15.028v-.884c0-6.324-5.508-11.492-12.308-11.492A13.568,13.568,0,0,0,472.2-13.464a13.369,13.369,0,0,0,5.508,11.22A15.166,15.166,0,0,0,486.344.68c5.168,0,9.112-2.652,12.036-8.16l-1.632-.748C494.3-3.672,491.172-1.36,487.5-1.36a5.53,5.53,0,0,1-5.3-3.128c-.68-1.564-.68-1.564-.748-9.044v-1.5Zm-16.932-1.7v-1.9c0-3.06.136-4.148.544-5.032.544-1.292,1.836-1.9,3.74-1.9q2.754,0,3.672,1.632c.544.884.68,1.972.68,5.3v1.9Zm23.256-8.3V-6.052C504.7-1.5,506.88.68,511.5.68a8.985,8.985,0,0,0,7.208-3.128A8.4,8.4,0,0,0,520.48-6.6l-1.9-.34c-.816,3.264-1.7,4.42-3.536,4.42-1.428,0-2.176-1.156-2.176-3.536V-25.024h5.644v-1.7h-5.644V-38.352h-1.836c-2.312,5.576-6.256,10.064-10.812,12.24v1.088Z" transform="translate(-2.04 46.104)" fill="#707070"/>
</svg>
