<svg xmlns="http://www.w3.org/2000/svg" width="616.53" height="67.05" viewBox="0 0 616.53 67.05">
  <path id="パス_13920" data-name="パス 13920" d="M8.25-1.875h-6V0h22.5V-1.875h-6v-23.85h4.125c6-.225,8.025,2.4,8.475,11.325.375,5.55.675,7.125,1.8,9.525C34.725-1.425,37.725.3,42.075.3A22.368,22.368,0,0,0,50.25-1.35V-3.3a10.627,10.627,0,0,1-3.525.825c-2.625,0-3.75-1.725-3.75-5.625a19.013,19.013,0,0,1,.075-1.95v-1.575c0-7.8-5.325-13.575-13.8-15,5.325-.3,6.6-.525,8.925-1.8A11.163,11.163,0,0,0,44.1-38.4a10.366,10.366,0,0,0-4.2-8.7c-3.15-2.325-6.375-2.925-15.6-2.925H2.25v1.875h6ZM18.75-27.6V-48.15H24.3c4.05,0,5.7.375,7.05,1.65,1.425,1.425,2.1,3.825,2.1,7.875,0,8.775-1.875,11.025-9.15,11.025ZM58.125-1.875H53.1V0H72.075V-1.875h-4.95V-30.3a55.713,55.713,0,0,1-11.7.825H53.1V-27.6h5.025Zm3.525-45.75a4.994,4.994,0,0,0-4.95,4.95,4.962,4.962,0,0,0,4.95,5.025,5.025,5.025,0,0,0,5.025-5.025A5.01,5.01,0,0,0,61.65-47.625ZM77.925-1.875H72.9V0H86.925V-4.425A11.761,11.761,0,0,0,97.125.75a13.192,13.192,0,0,0,9.15-3.6,17.952,17.952,0,0,0,4.8-12.075c0-8.7-6.075-15.3-14.025-15.3A11.567,11.567,0,0,0,86.925-24.75v-26.1a56.179,56.179,0,0,1-11.7.825H72.9v1.875h5.025ZM96-27.975a4.612,4.612,0,0,1,3.975,1.95c.975,1.425,1.35,3.675,1.35,9.15,0,5.7-.375,10.425-.9,12.3-.6,1.95-2.4,3.075-4.875,3.075-5.475,0-9-5.175-9-13.125,0-4.575.975-8.1,2.925-10.35A8.9,8.9,0,0,1,96-27.975Zm22.65,26.1h-5.025V0H127.65V-4.425A11.761,11.761,0,0,0,137.85.75,13.192,13.192,0,0,0,147-2.85a17.952,17.952,0,0,0,4.8-12.075c0-8.7-6.075-15.3-14.025-15.3A11.567,11.567,0,0,0,127.65-24.75v-26.1a56.179,56.179,0,0,1-11.7.825h-2.325v1.875h5.025Zm18.075-26.1a4.612,4.612,0,0,1,3.975,1.95c.975,1.425,1.35,3.675,1.35,9.15,0,5.7-.375,10.425-.9,12.3-.6,1.95-2.4,3.075-4.875,3.075-5.475,0-9-5.175-9-13.125,0-4.575.975-8.1,2.925-10.35A8.9,8.9,0,0,1,136.725-27.975Zm36.525-2.25c-9.375,0-16.725,6.825-16.725,15.45C156.525-6,163.875.75,173.325.75c9.375,0,16.8-6.75,16.8-15.3C190.125-23.475,182.85-30.225,173.25-30.225Zm.075,2.025a6.332,6.332,0,0,1,5.625,2.775c1.05,1.575,1.425,4.5,1.425,10.8,0,5.4-.375,8.55-1.125,10.125a6.375,6.375,0,0,1-5.925,3.225A6.332,6.332,0,0,1,167.7-4.05c-1.05-1.575-1.425-4.575-1.425-10.65,0-5.625.375-8.7,1.125-10.275A6.375,6.375,0,0,1,173.325-28.2Zm25.95,26.325H194.25V0h18V-1.875h-3.975V-16.35c0-3.675.15-4.5.975-6.15a8.516,8.516,0,0,1,7.05-4.725c2.775,0,3.75,1.725,3.75,6.675V-1.875H216V0h18V-1.875h-4.95V-20.55c0-4.125-.525-5.775-2.325-7.35a10.7,10.7,0,0,0-7.125-2.325,14.329,14.329,0,0,0-11.325,5.4V-30.3a56.648,56.648,0,0,1-11.7.825H194.25V-27.6h5.025ZM264.3-18l8.88,8.88,1.38-1.38-8.88-8.88,8.88-8.88-1.38-1.38-8.88,8.88-8.88-8.88-1.38,1.38,8.88,8.88-8.88,8.88,1.38,1.38ZM308.28-1.5h-5.4V0h19.2V-1.5h-5.4V-18.42L325.2-35.4c1.26-2.52,1.92-3,4.38-3.12h1.08v-1.5H319.08v1.5h3c1.68,0,2.1.18,2.1.96,0,.36,0,.36-.66,1.68l-7.38,14.82-9.78-17.46h5.1v-1.5H293.04v1.5h3.66l11.58,20.1ZM351.3-13.26v-.78c0-5.58-4.86-10.14-10.86-10.14a11.971,11.971,0,0,0-12.24,12.3,11.8,11.8,0,0,0,4.86,9.9A13.382,13.382,0,0,0,340.68.6c4.56,0,8.04-2.34,10.62-7.2l-1.44-.66c-2.16,4.02-4.92,6.06-8.16,6.06a4.879,4.879,0,0,1-4.68-2.76c-.6-1.38-.6-1.38-.66-7.98v-1.32Zm-14.94-1.5v-1.68c0-2.7.12-3.66.48-4.44.48-1.14,1.62-1.68,3.3-1.68q2.43,0,3.24,1.44c.48.78.6,1.74.6,4.68v1.68ZM356.88-1.5h-4.02V0h15.18V-1.5h-3.96V-40.68a44.2,44.2,0,0,1-9.36.66h-1.86v1.5h4.02Zm15.6,0h-4.02V0h15.18V-1.5h-3.96V-40.68a44.2,44.2,0,0,1-9.36.66h-1.86v1.5h4.02Zm26.7-22.68c-7.5,0-13.38,5.46-13.38,12.36C385.8-4.8,391.68.6,399.24.6c7.5,0,13.44-5.4,13.44-12.24C412.68-18.78,406.86-24.18,399.18-24.18Zm.06,1.62a5.065,5.065,0,0,1,4.5,2.22c.84,1.26,1.14,3.6,1.14,8.64,0,4.32-.3,6.84-.9,8.1a5.1,5.1,0,0,1-4.74,2.58,5.065,5.065,0,0,1-4.5-2.22c-.84-1.26-1.14-3.66-1.14-8.52,0-4.5.3-6.96.9-8.22A5.1,5.1,0,0,1,399.24-22.56Zm24.18.48h3.96v-1.5H412.86v1.5h2.82L424.92.78h1.44l5.94-15,6.48,15h1.38l7.56-20.1c.84-2.4,1.38-2.76,3.66-2.76h1.38v-1.5h-10.2v1.5h2.46c1.2,0,1.56.18,1.56.84,0,.3,0,.3-.42,1.5L442.2-8.94l-6-14.64h-1.8L428.58-8.94Zm47.82,36.6h-4.02v1.5H482.4v-1.5h-3.96V-4.2C480.78-.72,482.82.6,486,.6c5.7,0,10.5-5.7,10.5-12.6,0-6.6-4.86-12.18-10.68-12.18-3,0-5.1,1.26-7.38,4.44v-4.5a44.2,44.2,0,0,1-9.36.66h-1.86v1.5h4.02Zm13.14-36.9c3.12,0,4.32,3.06,4.32,10.98,0,6.96-1.38,10.2-4.26,10.2-3.54,0-6.3-4.56-6.3-10.38C478.14-17.58,480.9-22.38,484.38-22.38Zm29.34-1.8c-7.5,0-13.38,5.46-13.38,12.36C500.34-4.8,506.22.6,513.78.6c7.5,0,13.44-5.4,13.44-12.24C527.22-18.78,521.4-24.18,513.72-24.18Zm.06,1.62a5.065,5.065,0,0,1,4.5,2.22c.84,1.26,1.14,3.6,1.14,8.64,0,4.32-.3,6.84-.9,8.1a5.1,5.1,0,0,1-4.74,2.58,5.065,5.065,0,0,1-4.5-2.22c-.84-1.26-1.14-3.66-1.14-8.52,0-4.5.3-6.96.9-8.22A5.1,5.1,0,0,1,513.78-22.56Zm19.56,37.08h-4.02v1.5H544.5v-1.5h-3.96V-4.2C542.88-.72,544.92.6,548.1.6c5.7,0,10.5-5.7,10.5-12.6,0-6.6-4.86-12.18-10.68-12.18-3,0-5.1,1.26-7.38,4.44v-4.5a44.2,44.2,0,0,1-9.36.66h-1.86v1.5h4.02Zm13.14-36.9c3.12,0,4.32,3.06,4.32,10.98,0,6.96-1.38,10.2-4.26,10.2-3.54,0-6.3-4.56-6.3-10.38C540.24-17.58,543-22.38,546.48-22.38Zm18.24,36.9H560.7v1.5h15.18v-1.5h-3.96V-4.2C574.26-.72,576.3.6,579.48.6c5.7,0,10.5-5.7,10.5-12.6,0-6.6-4.86-12.18-10.68-12.18-3,0-5.1,1.26-7.38,4.44v-4.5a44.2,44.2,0,0,1-9.36.66H560.7v1.5h4.02Zm13.14-36.9c3.12,0,4.32,3.06,4.32,10.98,0,6.96-1.38,10.2-4.26,10.2-3.54,0-6.3-4.56-6.3-10.38C571.62-17.58,574.38-22.38,577.86-22.38ZM603.84-.12l-2.88,7.68c-1.2,3.12-1.98,4.44-2.58,4.44a.969.969,0,0,1-.84-.54,3.619,3.619,0,0,0-3.06-1.98,3.15,3.15,0,0,0-3.12,3.18,3.64,3.64,0,0,0,3.9,3.54,5.089,5.089,0,0,0,3.9-1.98c1.02-1.14,1.56-2.22,3.06-5.88l11.46-28.08c.84-1.98,1.5-2.4,3.66-2.34h1.44v-1.5h-10.2v1.5h1.92c1.44,0,1.8.24,1.8,1.08a4.252,4.252,0,0,1-.48,1.68L607.5-8.7l-6.06-13.38h2.88v-1.5h-13.8v1.5h2.94Z" transform="translate(-2.25 50.85)" fill="#707070"/>
</svg>
