<svg xmlns="http://www.w3.org/2000/svg" width="124.8" height="86.76" viewBox="0 0 124.8 86.76">
  <path id="パス_13949" data-name="パス 13949" d="M68.64-62.28q0,14.64-7.08,30A74.861,74.861,0,0,1,44.28-8.16Q33.36,1.8,22.92,1.8A14.1,14.1,0,0,1,10.8-4.74Q6.24-11.28,6.24-22.08q0-19.2,16.2-42.36Q36.48-84.48,52.32-84.48a14.053,14.053,0,0,1,12,5.88Q68.64-72.72,68.64-62.28Zm-8.76-9.84q0-10.56-8.16-10.56-11.88,0-24.36,26.88a171.1,171.1,0,0,0-9.48,26.64A64.879,64.879,0,0,0,15.6-12.6Q15.6-.36,24.36-.36q6.96,0,12.42-7.08t12.9-25.68Q59.88-58.68,59.88-72.12Zm71.16,3.48q0,9.96-9.12,16.2a42.411,42.411,0,0,1-14.64,6.48q-1.68.36-1.68.84,0,.36,2.04,1.08,11.28,3.96,11.28,15.84T108.36-6.96Q99,1.32,85.32,1.32q-9.36,0-14.52-4.14T65.64-14.64a12.449,12.449,0,0,1,2.52-7.98A7.677,7.677,0,0,1,74.4-25.8a5.185,5.185,0,0,1,3.54,1.32,4.033,4.033,0,0,1,1.5,3.12,5.421,5.421,0,0,1-1.56,3.9,4.987,4.987,0,0,1-3.72,1.62,8.227,8.227,0,0,1-1.56-.12H71.52q-2.88,0-2.88,3a9.688,9.688,0,0,0,4.14,7.98A16.151,16.151,0,0,0,82.92-1.8q11.16,0,18.48-9.72a33.028,33.028,0,0,0,4.5-9.3,33.753,33.753,0,0,0,1.86-10.38,12.857,12.857,0,0,0-2.82-8.46,8.289,8.289,0,0,0-6.9-3.3l-6.12.12a4.461,4.461,0,0,1-1.08.12q-2.04,0-2.04-2.28,0-1.56,3.48-1.56,7.92-.12,11.88-1.68a26.377,26.377,0,0,0,11.7-9,21.68,21.68,0,0,0,4.5-13.08q0-11.64-11.16-11.64a18.2,18.2,0,0,0-10.26,3.24q-4.86,3.24-4.86,6.84,0,.72.3.84a21.578,21.578,0,0,0,2.34.48q3.36.48,3.36,4.68a5.239,5.239,0,0,1-1.44,3.78,4.927,4.927,0,0,1-3.72,1.5,4.945,4.945,0,0,1-3.96-1.86,6.771,6.771,0,0,1-1.56-4.5q0-6.72,6.12-12.12,6.72-5.88,17.4-5.88,8.52,0,13.32,4.32T131.04-68.64Z" transform="translate(-6.24 84.96)" fill="#707070"/>
</svg>
