<svg xmlns="http://www.w3.org/2000/svg" width="116.16" height="86.88" viewBox="0 0 116.16 86.88">
  <path id="パス_13947" data-name="パス 13947" d="M68.64-62.28q0,14.64-7.08,30A74.861,74.861,0,0,1,44.28-8.16Q33.36,1.8,22.92,1.8A14.1,14.1,0,0,1,10.8-4.74Q6.24-11.28,6.24-22.08q0-19.2,16.2-42.36Q36.48-84.48,52.32-84.48a14.053,14.053,0,0,1,12,5.88Q68.64-72.72,68.64-62.28Zm-8.76-9.84q0-10.56-8.16-10.56-11.88,0-24.36,26.88a171.1,171.1,0,0,0-9.48,26.64A64.879,64.879,0,0,0,15.6-12.6Q15.6-.36,24.36-.36q6.96,0,12.42-7.08t12.9-25.68Q59.88-58.68,59.88-72.12ZM122.4-84.24a19.813,19.813,0,0,1-1.8,4.56q-.72,1.68-1.44,3.48L94.92-10.32a59.468,59.468,0,0,0-2.16,6.36q0,2.4,3.96,2.28l8.52-.12q1.68,0,1.68,1.08,0,.84-1.56.84h-1.2Q103.32,0,99.48,0H78.36q-5.4,0-8.64.12a16.465,16.465,0,0,1-2.04.12q-1.44,0-1.44-.84,0-1.08,3-1.08h1.2a30.379,30.379,0,0,0,3.12.12h1.92q3.96,0,5.76-2.16a27.315,27.315,0,0,0,2.76-6l18.36-49.56q5.4-14.52,5.4-16.56,0-2.28-2.64-2.28a52.053,52.053,0,0,0-6.36.96,12.582,12.582,0,0,1-2.16.24q-1.32,0-1.32-.84t6.12-1.92a104.389,104.389,0,0,0,19.56-5.16l.72-.24Q122.4-85.08,122.4-84.24Z" transform="translate(-6.24 85.08)" fill="#707070"/>
</svg>
