<svg xmlns="http://www.w3.org/2000/svg" width="123.24" height="86.52" viewBox="0 0 123.24 86.52">
  <path id="パス_13946" data-name="パス 13946" d="M68.64-62.28q0,14.64-7.08,30A74.861,74.861,0,0,1,44.28-8.16Q33.36,1.8,22.92,1.8A14.1,14.1,0,0,1,10.8-4.74Q6.24-11.28,6.24-22.08q0-19.2,16.2-42.36Q36.48-84.48,52.32-84.48a14.053,14.053,0,0,1,12,5.88Q68.64-72.72,68.64-62.28Zm-8.76-9.84q0-10.56-8.16-10.56-11.88,0-24.36,26.88a171.1,171.1,0,0,0-9.48,26.64A64.879,64.879,0,0,0,15.6-12.6Q15.6-.36,24.36-.36q6.96,0,12.42-7.08t12.9-25.68Q59.88-58.68,59.88-72.12Zm69.6,4.32q0,10.2-9.48,19.92-7.8,8.04-33.48,25.56-8.88,6.12-18,12.72,5.88.48,10.56.48,18.36,0,22.2-.42A11.274,11.274,0,0,0,107.52-12a25.6,25.6,0,0,0,6.36-9q.84-1.8,1.68-1.8.96,0,.96,1.08T112.44-12a42.787,42.787,0,0,0-2.28,5.04A47.759,47.759,0,0,1,106.92,0Q95.64.24,93.84.24,65.16.24,57.96-.24l1.08-3a12.449,12.449,0,0,1,2.76-4.8,49.184,49.184,0,0,1,6.48-4.92A350.3,350.3,0,0,0,96.84-34.44q12.84-10.68,17.52-21a32.088,32.088,0,0,0,3.12-13.08q0-6-3.36-9.48t-9.24-3.48q-8.88,0-14.4,8.28-2.4,3.6-2.4,5.64,0,.84.6.84l3.48-.12a3.007,3.007,0,0,1,2.28,1.32,4.175,4.175,0,0,1,1.08,2.64,5.668,5.668,0,0,1-1.86,4.2,5.955,5.955,0,0,1-4.26,1.8,5.435,5.435,0,0,1-4.02-1.8,5.854,5.854,0,0,1-1.74-4.2q0-7.2,6.96-14.52t18.84-7.32q9.84,0,14.52,4.2A16.253,16.253,0,0,1,129.48-67.8Z" transform="translate(-6.24 84.72)" fill="#707070"/>
</svg>
