<svg xmlns="http://www.w3.org/2000/svg" width="510.48" height="56.88" viewBox="0 0 510.48 56.88">
  <path id="パス_13918" data-name="パス 13918" d="M6.6-1.5H1.8V0h18V-1.5H15V-20.58h3.3c4.8-.18,6.42,1.92,6.78,9.06.3,4.44.54,5.7,1.44,7.62C27.78-1.14,30.18.24,33.66.24A17.9,17.9,0,0,0,40.2-1.08V-2.64a8.5,8.5,0,0,1-2.82.66c-2.1,0-3-1.38-3-4.5a15.211,15.211,0,0,1,.06-1.56V-9.3c0-6.24-4.26-10.86-11.04-12,4.26-.24,5.28-.42,7.14-1.44a8.931,8.931,0,0,0,4.74-7.98,8.293,8.293,0,0,0-3.36-6.96c-2.52-1.86-5.1-2.34-12.48-2.34H1.8v1.5H6.6ZM15-22.08V-38.52h4.44c3.24,0,4.56.3,5.64,1.32,1.14,1.14,1.68,3.06,1.68,6.3,0,7.02-1.5,8.82-7.32,8.82ZM46.5-1.5H42.48V0H57.66V-1.5H53.7V-24.24a44.571,44.571,0,0,1-9.36.66H42.48v1.5H46.5Zm2.82-36.6a4,4,0,0,0-3.96,3.96,3.969,3.969,0,0,0,3.96,4.02,4.02,4.02,0,0,0,4.02-4.02A4.008,4.008,0,0,0,49.32-38.1ZM62.34-1.5H58.32V0H69.54V-3.54A9.409,9.409,0,0,0,77.7.6a10.553,10.553,0,0,0,7.32-2.88,14.362,14.362,0,0,0,3.84-9.66c0-6.96-4.86-12.24-11.22-12.24a9.253,9.253,0,0,0-8.1,4.38V-40.68a44.943,44.943,0,0,1-9.36.66H58.32v1.5h4.02ZM76.8-22.38a3.69,3.69,0,0,1,3.18,1.56c.78,1.14,1.08,2.94,1.08,7.32a48,48,0,0,1-.72,9.84c-.48,1.56-1.92,2.46-3.9,2.46-4.38,0-7.2-4.14-7.2-10.5,0-3.66.78-6.48,2.34-8.28A7.121,7.121,0,0,1,76.8-22.38ZM94.92-1.5H90.9V0h11.22V-3.54A9.409,9.409,0,0,0,110.28.6a10.553,10.553,0,0,0,7.32-2.88,14.362,14.362,0,0,0,3.84-9.66c0-6.96-4.86-12.24-11.22-12.24a9.253,9.253,0,0,0-8.1,4.38V-40.68a44.943,44.943,0,0,1-9.36.66H90.9v1.5h4.02Zm14.46-20.88a3.69,3.69,0,0,1,3.18,1.56c.78,1.14,1.08,2.94,1.08,7.32a48,48,0,0,1-.72,9.84c-.48,1.56-1.92,2.46-3.9,2.46-4.38,0-7.2-4.14-7.2-10.5,0-3.66.78-6.48,2.34-8.28A7.121,7.121,0,0,1,109.38-22.38Zm29.22-1.8c-7.5,0-13.38,5.46-13.38,12.36C125.22-4.8,131.1.6,138.66.6c7.5,0,13.44-5.4,13.44-12.24C152.1-18.78,146.28-24.18,138.6-24.18Zm.06,1.62a5.065,5.065,0,0,1,4.5,2.22c.84,1.26,1.14,3.6,1.14,8.64,0,4.32-.3,6.84-.9,8.1a5.1,5.1,0,0,1-4.74,2.58,5.065,5.065,0,0,1-4.5-2.22c-.84-1.26-1.14-3.66-1.14-8.52,0-4.5.3-6.96.9-8.22A5.1,5.1,0,0,1,138.66-22.56ZM159.42-1.5H155.4V0h14.4V-1.5h-3.18V-13.08c0-2.94.12-3.6.78-4.92a6.813,6.813,0,0,1,5.64-3.78c2.22,0,3,1.38,3,5.34V-1.5H172.8V0h14.4V-1.5h-3.96V-16.44c0-3.3-.42-4.62-1.86-5.88a8.564,8.564,0,0,0-5.7-1.86,11.463,11.463,0,0,0-9.06,4.32v-4.38a45.318,45.318,0,0,1-9.36.66H155.4v1.5h4.02ZM217.44-18l8.88,8.88,1.38-1.38-8.88-8.88,8.88-8.88-1.38-1.38-8.88,8.88-8.88-8.88-1.38,1.38,8.88,8.88-8.88,8.88,1.38,1.38Zm36.6,16.5h-4.8V0h18V-1.5h-4.8V-20.58h3.3c4.8-.18,6.42,1.92,6.78,9.06.3,4.44.54,5.7,1.44,7.62,1.26,2.76,3.66,4.14,7.14,4.14a17.9,17.9,0,0,0,6.54-1.32V-2.64a8.5,8.5,0,0,1-2.82.66c-2.1,0-3-1.38-3-4.5a15.211,15.211,0,0,1,.06-1.56V-9.3c0-6.24-4.26-10.86-11.04-12,4.26-.24,5.28-.42,7.14-1.44a8.931,8.931,0,0,0,4.74-7.98,8.293,8.293,0,0,0-3.36-6.96c-2.52-1.86-5.1-2.34-12.48-2.34H249.24v1.5h4.8Zm8.4-20.58V-38.52h4.44c3.24,0,4.56.3,5.64,1.32,1.14,1.14,1.68,3.06,1.68,6.3,0,7.02-1.5,8.82-7.32,8.82Zm50.34,8.82v-.78c0-5.58-4.86-10.14-10.86-10.14a11.971,11.971,0,0,0-12.24,12.3,11.8,11.8,0,0,0,4.86,9.9A13.382,13.382,0,0,0,302.16.6c4.56,0,8.04-2.34,10.62-7.2l-1.44-.66c-2.16,4.02-4.92,6.06-8.16,6.06a4.879,4.879,0,0,1-4.68-2.76c-.6-1.38-.6-1.38-.66-7.98v-1.32Zm-14.94-1.5v-1.68c0-2.7.12-3.66.48-4.44.48-1.14,1.62-1.68,3.3-1.68q2.43,0,3.24,1.44c.48.78.6,1.74.6,4.68v1.68ZM334.14,0h11.22V-1.5h-4.02V-40.68a44.2,44.2,0,0,1-9.36.66h-1.86v1.5h4.02V-20.1c-2.28-2.94-4.32-4.08-7.32-4.08-5.88,0-10.74,5.7-10.74,12.6,0,6.84,4.8,12.18,10.98,12.18,3.06,0,5.28-1.32,7.08-4.2ZM328.5-22.38a5.415,5.415,0,0,1,4.2,2.64c1.14,1.56,1.68,4.38,1.68,8.1,0,6-2.4,10.38-5.76,10.38a3.654,3.654,0,0,1-3.24-1.86c-.84-1.5-1.5-5.52-1.5-9.54C323.88-19.08,325.44-22.38,328.5-22.38Zm36.24,36.9h-4.02v1.5H375.9v-1.5h-3.96V-4.2C374.28-.72,376.32.6,379.5.6,385.2.6,390-5.1,390-12c0-6.6-4.86-12.18-10.68-12.18-3,0-5.1,1.26-7.38,4.44v-4.5a44.2,44.2,0,0,1-9.36.66h-1.86v1.5h4.02Zm13.14-36.9c3.12,0,4.32,3.06,4.32,10.98,0,6.96-1.38,10.2-4.26,10.2-3.54,0-6.3-4.56-6.3-10.38C371.64-17.58,374.4-22.38,377.88-22.38Zm29.34-1.8c-7.5,0-13.38,5.46-13.38,12.36C393.84-4.8,399.72.6,407.28.6c7.5,0,13.44-5.4,13.44-12.24C420.72-18.78,414.9-24.18,407.22-24.18Zm.06,1.62a5.065,5.065,0,0,1,4.5,2.22c.84,1.26,1.14,3.6,1.14,8.64,0,4.32-.3,6.84-.9,8.1a5.1,5.1,0,0,1-4.74,2.58,5.065,5.065,0,0,1-4.5-2.22c-.84-1.26-1.14-3.66-1.14-8.52,0-4.5.3-6.96.9-8.22A5.1,5.1,0,0,1,407.28-22.56Zm19.56,37.08h-4.02v1.5H438v-1.5h-3.96V-4.2C436.38-.72,438.42.6,441.6.6c5.7,0,10.5-5.7,10.5-12.6,0-6.6-4.86-12.18-10.68-12.18-3,0-5.1,1.26-7.38,4.44v-4.5a44.2,44.2,0,0,1-9.36.66h-1.86v1.5h4.02Zm13.14-36.9c3.12,0,4.32,3.06,4.32,10.98,0,6.96-1.38,10.2-4.26,10.2-3.54,0-6.3-4.56-6.3-10.38C433.74-17.58,436.5-22.38,439.98-22.38Zm18.24,36.9H454.2v1.5h15.18v-1.5h-3.96V-4.2C467.76-.72,469.8.6,472.98.6c5.7,0,10.5-5.7,10.5-12.6,0-6.6-4.86-12.18-10.68-12.18-3,0-5.1,1.26-7.38,4.44v-4.5a44.2,44.2,0,0,1-9.36.66H454.2v1.5h4.02Zm13.14-36.9c3.12,0,4.32,3.06,4.32,10.98,0,6.96-1.38,10.2-4.26,10.2-3.54,0-6.3-4.56-6.3-10.38C465.12-17.58,467.88-22.38,471.36-22.38ZM497.34-.12l-2.88,7.68c-1.2,3.12-1.98,4.44-2.58,4.44a.969.969,0,0,1-.84-.54,3.619,3.619,0,0,0-3.06-1.98,3.15,3.15,0,0,0-3.12,3.18,3.64,3.64,0,0,0,3.9,3.54,5.09,5.09,0,0,0,3.9-1.98c1.02-1.14,1.56-2.22,3.06-5.88l11.46-28.08c.84-1.98,1.5-2.4,3.66-2.34h1.44v-1.5h-10.2v1.5H504c1.44,0,1.8.24,1.8,1.08a4.252,4.252,0,0,1-.48,1.68L501-8.7l-6.06-13.38h2.88v-1.5h-13.8v1.5h2.94Z" transform="translate(-1.8 40.68)" fill="#707070"/>
</svg>
